# xmcd
#
# Track frame offsets:
# 150
# 11310
# 27047
# 35672
# 50510
# 66490
# 82637
# 95690
# 105785
# 118380
# 127247
# 143940
# 152447
# 161882
# 172270
# 183180
# 199447
# 217735
# 229060
# 241107
# 254955
# 271070
# 281595
#
# Disc length: 3979 seconds
#
# Revision: 2
# Processed by: cddbd v1.5.2PL0 Copyright (c) Steve Scherf et al.
# Submitted via: Axialis_AX_CDPlayer 2.6
#
DISCID=480f8917
DTITLE=Tompall Glaser - My Notorious Youth - Hillbilly Central #1 (w/ comple
DTITLE=te \ntracklist)
DYEAR=2005
DGENRE=Country
TTITLE0=Charlie
TTITLE1=Mr. Lonesome
TTITLE2=An Ode To My Notorious Youth
TTITLE3=Loneliest Man
TTITLE4=I'll Fly Away Medley
TTITLE5=Cowboys And Daddies
TTITLE6=Big Jim Colson
TTITLE7=Bad Bad Bad Cowboy
TTITLE8=Gideon Bible
TTITLE9=Let It Be Pretty
TTITLE10=Sold American
TTITLE11=Texas Law Sez
TTITLE12=Broken Down Momma
TTITLE13=Pass Me On By
TTITLE14=Willy The Wandering Gypsy And Me
TTITLE15=Lay Down Beside Me
TTITLE16=Take The Singer With The Song
TTITLE17=Honey Don't You Know
TTITLE18=The Good Lord Knows I Tried
TTITLE19=Breakdown (A Long Way From Home)
TTITLE20=I'll Fly Away Medley (I Saw The Light/I'll Fly Away/Love Lifted Me)
TTITLE21=Love Stoned
TTITLE22=Will The Circle Be Unbroken
EXTD=
EXTT0=
EXTT1=
EXTT2=
EXTT3=
EXTT4=
EXTT5=
EXTT6=
EXTT7=
EXTT8=
EXTT9=
EXTT10=
EXTT11=
EXTT12=
EXTT13=
EXTT14=
EXTT15=
EXTT16=
EXTT17=
EXTT18=
EXTT19=
EXTT20=
EXTT21=
EXTT22=
PLAYORDER=
